<?xml version="1.0" encoding="UTF-8"?>
<svg xmlns="http://www.w3.org/2000/svg" width="72" height="72" viewBox="0 0 72 72" fill="none">
  <path d="M20.8701 55.5638C20.8895 56.3749 20.8991 57.1902 20.8354 58M2 43.1814C2.84895 42.7322 3.73556 42.3627 4.59359 41.9331M2 25.7251C2.94765 26.3283 3.85418 26.995 4.80399 27.593M20.7042 18.5752C20.6709 17.3805 20.6782 16.1943 20.7163 15M35.3752 26.7133C36.5649 25.9239 37.79 25.1823 39 24.4246M33.2991 42.9933C34.2164 43.8174 35.1377 44.632 36.0256 45.4882M10.4754 33.6885C12.3416 25.141 25.4065 23.4288 29.2841 31.2095C30.2063 33.0601 30.2617 36.0004 29.7829 38.0824C29.2796 40.2706 27.954 41.5526 27.0169 43.5139C26.5659 44.458 25.9148 45.9939 25.5947 47.2854H14.7105C14.0973 42.4555 9.34944 38.8461 10.4754 33.6885ZM14.5104 53.868C14.5073 52.3777 14.4344 50.8874 14.4602 49.3975C14.4704 48.8075 14.3699 48.0859 14.8792 47.6734C15.623 47.0713 16.7294 46.9836 17.6525 46.9613C19.3826 46.9198 21.126 46.9345 22.8578 46.938C23.6465 46.9394 24.8236 46.8021 25.5345 47.195C26.2112 47.5682 26.3824 48.5857 26.4585 49.2729C26.6044 50.5898 26.9928 53.5304 25.8775 54.5498C25.1751 55.192 24.0794 55.3263 23.1799 55.4373C20.7936 55.7317 14.514 55.6732 14.5104 53.868Z" stroke="#1F2122" stroke-width="2" stroke-miterlimit="1.5" stroke-linecap="round" stroke-linejoin="round"></path>
</svg>
