<?xml version="1.0" encoding="UTF-8"?>
<svg xmlns="http://www.w3.org/2000/svg" width="72" height="72" viewBox="0 0 72 72" fill="none">
  <path d="M8.89899 15.1866C8.53233 16.8923 8.11932 18.6593 7.90416 20.3893M3.57812 21.081C4.48963 21.1091 5.39632 21.2197 6.29828 21.3487M9.2545 21.5923C10.2691 21.8927 11.2745 21.947 12.3137 22.0755M7.07791 26.9794C7.01267 25.8602 6.99514 24.2774 7.37718 23.1908M42.9238 24.2858C42.9077 21.4997 43.0764 19.3948 40.7829 17.7011C42.9852 17.2995 44.7697 14.4955 45.3562 12.2759C45.5104 14.4694 45.5562 17.017 46.9703 18.7351C44.8759 19.4096 43.4283 21.7962 42.9544 24.0004M7.13203 47.9843C7.46308 47.7545 8.21604 47.5145 8.61381 47.4137C10.7248 46.8791 11.7663 49.0648 12.0754 50.7635C12.49 50.2278 13.0372 49.6985 13.6817 49.4465C15.5745 48.7062 16.738 50.2973 16.5927 52.0486C17.9735 51.2456 20.4093 51.4478 19.9736 53.7274M21.348 54.8222C22.5913 54.4485 24.008 54.5456 25.3026 54.9999C26.6514 55.4732 27.8675 56.3343 28.6167 57.4542M12.0675 50.7598C12.9677 48.3632 14.5519 44.5571 15.8051 41.9547C17.8041 37.804 20.0162 33.0718 22.1898 29.0116M16.5939 52.0454C20.0085 45.5208 22.9607 37.7443 26.6543 31.3687M32.2669 28.7346C32.8855 27.223 34.0963 25.0824 33.5429 22.1955C32.9751 19.2333 29.1353 17.1172 25.96 17.6343C22.6916 18.1664 21.0787 20.583 19.5843 23.4435C15.6193 31.0317 9.65865 41.5887 7.14399 47.8745C7.00594 48.2196 8.11232 53.6885 8.68597 56.5779C8.90952 57.7039 9.0514 59.0997 10.2403 59.6501C11.4223 60.1974 12.6607 59.4824 13.6498 58.8424C15.8955 57.3894 17.8929 55.5819 19.8982 53.8228C20.6844 53.1332 28.5942 36.7369 32.2669 28.7346ZM20.754 21.4269C20.3478 22.0569 19.9718 22.7354 19.6031 23.4412C18.9338 24.722 18.2076 26.0876 17.4509 27.5025C17.5658 27.5287 17.6797 27.5548 17.7931 27.5803C21.9947 28.5231 26.5385 30.8473 29.926 33.7942C30.8077 31.925 31.617 30.1894 32.2857 28.7322C32.3537 28.5664 32.4287 28.393 32.5077 28.2118C29.4502 24.8476 25.2371 22.0407 20.754 21.4269Z" stroke="#1F2122" stroke-width="2" stroke-miterlimit="1.5" stroke-linecap="round" stroke-linejoin="round"></path>
</svg>
