<?xml version="1.0" encoding="UTF-8"?>
<svg xmlns="http://www.w3.org/2000/svg" width="72" height="72" viewBox="0 0 72 72" fill="none">
  <path d="M11.5 55.5C13.3343 55.2898 15.2368 55.1152 17.1714 54.963M30.5899 54.111C33.3733 53.9375 36.048 53.7477 38.5 53.5M8.01855 36.803C13.9305 36.0168 19.9641 35.9486 25.9029 35.3803M32.7278 32.0001C29.7028 32.5708 26.368 32.385 23.295 32.5918C18.243 32.9313 13.1156 33.6623 8.05266 33.6829M31.0603 38.101C28.2797 38.6154 25.2145 38.4494 22.3898 38.6363C17.7461 38.9434 13.033 39.6026 8.37933 39.6228M8.97406 47.9521C14.6578 47.7551 37.9789 47.1859 41.9959 45.5234C46.8018 43.5344 44.5658 29.0828 43.885 23.7019C43.6133 21.5547 42.565 18.8074 40.4917 17.7356C36.8835 15.87 6.86563 18.0153 4.1141 19.0812C-0.0763664 20.7046 1.13771 26.2333 1.24294 29.0941C1.39372 33.1949 1.60418 37.3081 1.88198 41.4026C2.01935 43.4278 1.98958 45.4904 3.62611 46.9182C5.10626 48.2095 7.19737 48.0137 8.97406 47.9521ZM18.2029 47.545C21.6795 47.4089 25.5744 47.2315 29.2575 47C29.757 49.1649 29.8667 51.5279 29.9539 53.4079C29.9693 53.7396 29.984 54.0562 30 54.3541C28.3853 54.4598 26.3355 54.5627 24.1724 54.6713C22.1366 54.7735 20.1712 54.6601 18.2029 54.7794L18.032 54.3436C18.0302 54.0607 18.0249 53.7433 18.0191 53.3981C17.9924 51.8101 17.9559 49.6356 18.2029 47.545Z" stroke="#1F2122" stroke-width="2" stroke-miterlimit="1.5" stroke-linecap="round" stroke-linejoin="round"></path>
  <path d="M36.4915 22.7671C36.5099 23.0426 36.3014 23.2809 36.0259 23.2992C35.7504 23.3176 35.5121 23.1091 35.4937 22.8336C35.4754 22.5581 35.6838 22.3198 35.9594 22.3014C36.2349 22.2831 36.4731 22.4915 36.4915 22.7671ZM33.4981 22.9667C33.5165 23.2422 33.308 23.4805 33.0325 23.4988C32.757 23.5172 32.5187 23.3087 32.5004 23.0332C32.482 22.7577 32.6905 22.5194 32.966 22.501C33.2415 22.4827 33.4798 22.6911 33.4981 22.9667ZM30.5048 23.1663C30.5232 23.4418 30.3147 23.6801 30.0392 23.6984C29.7636 23.7168 29.5254 23.5083 29.507 23.2328C29.4886 22.9573 29.6971 22.719 29.9726 22.7006C30.2482 22.6823 30.4864 22.8907 30.5048 23.1663Z" stroke="#1F2122" stroke-miterlimit="1.5" stroke-linecap="round" stroke-linejoin="round"></path>
</svg>
